:FULLY-SPECIFIED
:FORCE-ALL-JOINTS-BE-3DOF
:DEGREES
275
root 9.97355 16.8782 1.74159 5.83134 -4.04219 2.00424
lfemur -17.4349 6.4155 -28.5479
ltibia 29.5308 0 0
lfoot -17.4172 6.61744 0
ltoes -1.04113 0 0
rfemur -25.6404 -1.76139 17.6008
rtibia 63.7321 0 0
rfoot -17.2013 -11.5615 0
rtoes -16.9656 0 0
lowerback -5.1045 -1.46618 -2.92081
upperback -0.448712 -1.84382 2.08098
thorax 2.56447 -0.963367 3.65316
lowerneck -22.0543 -3.7449 -11.3358
upperneck 21.6623 -4.38622 11.3763
head 11.1911 -1.54106 5.40357
lclavicle 1.15792e-14 -2.19988e-14 0
lhumerus -21.7114 -14.1444 87.3686
lradius 24.0284 0 0
lwrist 0.393148 0 0
lhand -12.7621 -24.2699 0
lfingers 7.12502 0 0
lthumb 13.3226 5.28424 0
rclavicle 1.15792e-14 -2.19988e-14 0
rhumerus -45.578 8.22013 -83.0907
rradius 42.4036 0 0
rwrist -23.3524 0 0
rhand -29.409 -22.6309 0
rfingers 7.12502 0 0
rthumb -2.74667 -52.5929 0
276
root 9.98365 16.8686 1.86508 5.73174 -3.68402 2.05094
lfemur -16.7882 6.2223 -28.5932
ltibia 29.438 0 0
lfoot -17.7019 6.48757 0
ltoes -1.06467 0 0
rfemur -26.6742 -1.8023 17.7004
rtibia 63.1149 0 0
rfoot -17.9891 -11.7142 0
rtoes -17.5856 0 0
lowerback -5.08157 -1.64817 -2.98399
upperback -0.396472 -2.08449 2.11513
thorax 2.62871 -1.08631 3.70583
lowerneck -22.0818 -3.70672 -11.2466
upperneck 21.8055 -4.3383 11.2522
head 11.2371 -1.52675 5.35419
lclavicle 1.20761e-14 -1.93484e-14 0
lhumerus -20.7775 -14.1281 87.1194
lradius 24.0432 0 0
lwrist 0.24995 0 0
lhand -12.7668 -24.2605 0
lfingers 7.12502 0 0
lthumb 13.3181 5.2939 0
rclavicle 1.20761e-14 -1.93484e-14 0
rhumerus -45.6202 8.30293 -83.0808
rradius 42.4772 0 0
rwrist -23.5624 0 0
rhand -29.447 -22.6999 0
rfingers 7.12502 0 0
rthumb -2.78338 -52.6614 0
277
root 9.99374 16.859 1.98856 5.63214 -3.32586 2.09763
lfemur -16.1414 6.0291 -28.6385
ltibia 29.3452 0 0
lfoot -17.9866 6.35771 0
ltoes -1.08821 0 0
rfemur -27.7079 -1.84321 17.7999
rtibia 62.4978 0 0
rfoot -18.777 -11.8669 0
rtoes -18.2057 0 0
lowerback -5.05864 -1.83017 -3.04716
upperback -0.344233 -2.32516 2.14928
thorax 2.69295 -1.20926 3.7585
lowerneck -22.1094 -3.66855 -11.1574
upperneck 21.9487 -4.29038 11.128
head 11.2832 -1.51244 5.30481
lclavicle 1.25731e-14 -1.66979e-14 0
lhumerus -19.8435 -14.1118 86.8702
lradius 24.0579 0 0
lwrist 0.106751 0 0
lhand -12.7714 -24.2512 0
lfingers 7.12502 0 0
lthumb 13.3136 5.30356 0
rclavicle 1.25731e-14 -1.66979e-14 0
rhumerus -45.6624 8.38572 -83.0708
rradius 42.5509 0 0
rwrist -23.7724 0 0
rhand -29.485 -22.7689 0
rfingers 7.12502 0 0
rthumb -2.82009 -52.73 0
278
root 9.99972 16.8596 2.11115 5.66704 -2.84497 2.16556
lfemur -15.4407 5.7895 -28.696
ltibia 28.8976 0 0
lfoot -18.1277 6.23376 0
ltoes -1.19862 0 0
rfemur -28.6381 -1.79737 17.7433
rtibia 61.2898 0 0
rfoot -19.3458 -11.8751 0
rtoes -17.7936 0 0
lowerback -5.07893 -2.02632 -3.15589
upperback -0.349197 -2.5809 2.17616
thorax 2.73107 -1.33913 3.82541
lowerneck -22.0282 -3.64603 -11.2306
upperneck 21.9688 -4.26184 11.1951
head 11.2746 -1.50002 5.34831
lclavicle 1.34842e-14 -9.14408e-15 0
lhumerus -19.0944 -14.2762 86.7611
lradius 24.1559 0 0
lwrist 0.181866 0 0
lhand -13.1915 -24.3402 0
lfingers 7.12502 0 0
lthumb 12.9085 5.23838 0
rclavicle 1.34842e-14 -9.14408e-15 0
rhumerus -45.7759 8.3764 -83.0369
rradius 42.4735 0 0
rwrist -23.7008 0 0
rhand -29.4219 -23.0849 0
rfingers 7.12502 0 0
rthumb -2.7592 -53.0467 0
279
root 10.0057 16.8601 2.23374 5.70195 -2.36409 2.23349
lfemur -14.7399 5.54991 -28.7534
ltibia 28.4499 0 0
lfoot -18.2688 6.10981 0
ltoes -1.30903 0 0
rfemur -29.5683 -1.75154 17.6867
rtibia 60.0818 0 0
rfoot -19.9146 -11.8834 0
rtoes -17.3815 0 0
lowerback -5.09923 -2.22247 -3.26462
upperback -0.354162 -2.83664 2.20304
thorax 2.76918 -1.46899 3.89232
lowerneck -21.9471 -3.62351 -11.3038
upperneck 21.989 -4.2333 11.2623
head 11.2659 -1.48759 5.39181
lclavicle 1.43953e-14 -1.59027e-15 0
lhumerus -18.3454 -14.4405 86.6519
lradius 24.2538 0 0
lwrist 0.256981 0 0
lhand -13.6117 -24.4293 0
lfingers 7.12502 0 0
lthumb 12.5034 5.17321 0
rclavicle 1.43953e-14 -1.59027e-15 0
rhumerus -45.8893 8.36708 -83.0031
rradius 42.3962 0 0
rwrist -23.6291 0 0
rhand -29.3589 -23.4009 0
rfingers 7.12502 0 0
rthumb -2.69832 -53.3635 0
280
root 10.0117 16.8607 2.35634 5.73686 -1.8832 2.30143
lfemur -14.0392 5.31031 -28.8109
ltibia 28.0023 0 0
lfoot -18.4099 5.98585 0
ltoes -1.41945 0 0
rfemur -30.4984 -1.7057 17.6301
rtibia 58.8738 0 0
rfoot -20.4834 -11.8916 0
rtoes -16.9693 0 0
lowerback -5.11952 -2.41863 -3.37335
upperback -0.359126 -3.09239 2.22992
thorax 2.80729 -1.59885 3.95923
lowerneck -21.8659 -3.601 -11.377
upperneck 22.0091 -4.20476 11.3295
head 11.2573 -1.47517 5.4353
lclavicle 1.53064e-14 5.96355e-15 0
lhumerus -17.5964 -14.6049 86.5427
lradius 24.3518 0 0
lwrist 0.332097 0 0
lhand -14.0318 -24.5183 0
lfingers 7.12502 0 0
lthumb 12.0983 5.10803 0
rclavicle 1.53064e-14 5.96355e-15 0
rhumerus -46.0028 8.35776 -82.9692
rradius 42.3188 0 0
rwrist -23.5575 0 0
rhand -29.2959 -23.7169 0
rfingers 7.12502 0 0
rthumb -2.63743 -53.6803 0
